REM DIRINDEX 1\2,1\3,1\4
REM DIRNAME cjc151,folder01,folder02,folder03
TITLE ""
FILE "121 121_Lesson 2_TOEFL_3900.mp3" MP3
  TRACK 01 AUDIO
    TITLE "4:cjc151_5248"
    INDEX 01 00:00:00
  TRACK 02 AUDIO
    TITLE "0:"
    INDEX 01 00:01:48
  TRACK 03 AUDIO
    TITLE "2:cjc151_5249"
    INDEX 01 00:02:28
  TRACK 04 AUDIO
    TITLE "0:"
    INDEX 01 00:03:63
  TRACK 05 AUDIO
    TITLE "3:cjc151_5250"
    INDEX 01 00:05:42
  TRACK 06 AUDIO
    TITLE "0:"
    INDEX 01 00:09:71
  TRACK 07 AUDIO
    TITLE "2:cjc151_5251"
    INDEX 01 00:11:50
  TRACK 08 AUDIO
    TITLE "0:"
    INDEX 01 00:13:12
  TRACK 09 AUDIO
    TITLE "3:cjc151_5252"
    INDEX 01 00:14:64
  TRACK 10 AUDIO
    TITLE "0:"
    INDEX 01 00:19:71
  TRACK 11 AUDIO
    TITLE "2:cjc151_5253"
    INDEX 01 00:21:49
  TRACK 12 AUDIO
    TITLE "0:"
    INDEX 01 00:22:58
  TRACK 13 AUDIO
    TITLE "3:cjc151_5254"
    INDEX 01 00:24:35
  TRACK 14 AUDIO
    TITLE "0:"
    INDEX 01 00:28:72
  TRACK 15 AUDIO
    TITLE "2:cjc151_5255"
    INDEX 01 00:30:50
  TRACK 16 AUDIO
    TITLE "0:"
    INDEX 01 00:31:61
  TRACK 17 AUDIO
    TITLE "3:cjc151_5256"
    INDEX 01 00:33:40
  TRACK 18 AUDIO
    TITLE "0:"
    INDEX 01 00:36:25
  TRACK 19 AUDIO
    TITLE "2:cjc151_5257"
    INDEX 01 00:38:02
  TRACK 20 AUDIO
    TITLE "0:"
    INDEX 01 00:39:11
  TRACK 21 AUDIO
    TITLE "3:cjc151_5258"
    INDEX 01 00:40:64
  TRACK 22 AUDIO
    TITLE "0:"
    INDEX 01 00:45:37
  TRACK 23 AUDIO
    TITLE "2:cjc151_5259"
    INDEX 01 00:47:15
  TRACK 24 AUDIO
    TITLE "0:"
    INDEX 01 00:48:26
  TRACK 25 AUDIO
    TITLE "3:cjc151_5260"
    INDEX 01 00:50:03
  TRACK 26 AUDIO
    TITLE "0:"
    INDEX 01 00:54:34
  TRACK 27 AUDIO
    TITLE "2:cjc151_5261"
    INDEX 01 00:56:10
  TRACK 28 AUDIO
    TITLE "0:"
    INDEX 01 00:57:45
  TRACK 29 AUDIO
    TITLE "3:cjc151_5262"
    INDEX 01 00:59:24
  TRACK 30 AUDIO
    TITLE "0:"
    INDEX 01 01:03:69
  TRACK 31 AUDIO
    TITLE "2:cjc151_5263"
    INDEX 01 01:05:48
  TRACK 32 AUDIO
    TITLE "0:"
    INDEX 01 01:06:55
  TRACK 33 AUDIO
    TITLE "3:cjc151_5264"
    INDEX 01 01:08:35
  TRACK 34 AUDIO
    TITLE "0:"
    INDEX 01 01:12:48
  TRACK 35 AUDIO
    TITLE "2:cjc151_5265"
    INDEX 01 01:14:29
  TRACK 36 AUDIO
    TITLE "0:"
    INDEX 01 01:15:54
  TRACK 37 AUDIO
    TITLE "3:cjc151_5266"
    INDEX 01 01:17:33
  TRACK 38 AUDIO
    TITLE "0:"
    INDEX 01 01:22:23
  TRACK 39 AUDIO
    TITLE "2:cjc151_5267"
    INDEX 01 01:24:00
  TRACK 40 AUDIO
    TITLE "0:"
    INDEX 01 01:25:13
  TRACK 41 AUDIO
    TITLE "3:cjc151_5268"
    INDEX 01 01:26:68
  TRACK 42 AUDIO
    TITLE "0:"
    INDEX 01 01:31:43
  TRACK 43 AUDIO
    TITLE "2:cjc151_5269"
    INDEX 01 01:33:23
  TRACK 44 AUDIO
    TITLE "0:"
    INDEX 01 01:34:34
  TRACK 45 AUDIO
    TITLE "3:cjc151_5270"
    INDEX 01 01:36:13
  TRACK 46 AUDIO
    TITLE "0:"
    INDEX 01 01:40:17
  TRACK 47 AUDIO
    TITLE "2:cjc151_5271"
    INDEX 01 01:42:00
  TRACK 48 AUDIO
    TITLE "0:"
    INDEX 01 01:43:23
  TRACK 49 AUDIO
    TITLE "3:cjc151_5272"
    INDEX 01 01:45:02
  TRACK 50 AUDIO
    TITLE "0:"
    INDEX 01 01:48:69
  TRACK 51 AUDIO
    TITLE "2:cjc151_5273"
    INDEX 01 01:50:49
  TRACK 52 AUDIO
    TITLE "0:"
    INDEX 01 01:51:64
  TRACK 53 AUDIO
    TITLE "3:cjc151_5274"
    INDEX 01 01:53:43
  TRACK 54 AUDIO
    TITLE "0:"
    INDEX 01 01:57:74
  TRACK 55 AUDIO
    TITLE "2:cjc151_5275"
    INDEX 01 01:59:53
  TRACK 56 AUDIO
    TITLE "0:"
    INDEX 01 02:00:67
  TRACK 57 AUDIO
    TITLE "3:cjc151_5276"
    INDEX 01 02:02:46
  TRACK 58 AUDIO
    TITLE "0:"
    INDEX 01 02:06:40
  TRACK 59 AUDIO
    TITLE "2:cjc151_5277"
    INDEX 01 02:08:17
  TRACK 60 AUDIO
    TITLE "0:"
    INDEX 01 02:09:42
  TRACK 61 AUDIO
    TITLE "3:cjc151_5278"
    INDEX 01 02:11:19
  TRACK 62 AUDIO
    TITLE "0:"
    INDEX 01 02:15:47
  TRACK 63 AUDIO
    TITLE "2:cjc151_5279"
    INDEX 01 02:17:26
  TRACK 64 AUDIO
    TITLE "0:"
    INDEX 01 02:18:51
  TRACK 65 AUDIO
    TITLE "3:cjc151_5280"
    INDEX 01 02:20:30
  TRACK 66 AUDIO
    TITLE "0:"
    INDEX 01 02:25:02
  TRACK 67 AUDIO
    TITLE "2:cjc151_5281"
    INDEX 01 02:26:54
  TRACK 68 AUDIO
    TITLE "0:"
    INDEX 01 02:28:06
  TRACK 69 AUDIO
    TITLE "3:cjc151_5282"
    INDEX 01 02:29:60
  TRACK 70 AUDIO
    TITLE "0:"
    INDEX 01 02:32:59
  TRACK 71 AUDIO
    TITLE "2:cjc151_5283"
    INDEX 01 02:34:38
  TRACK 72 AUDIO
    TITLE "0:"
    INDEX 01 02:35:39
  TRACK 73 AUDIO
    TITLE "3:cjc151_5284"
    INDEX 01 02:37:17
  TRACK 74 AUDIO
    TITLE "0:"
    INDEX 01 02:41:07
  TRACK 75 AUDIO
    TITLE "2:cjc151_5285"
    INDEX 01 02:42:61
  TRACK 76 AUDIO
    TITLE "0:"
    INDEX 01 02:44:01
  TRACK 77 AUDIO
    TITLE "3:cjc151_5286"
    INDEX 01 02:45:56
  TRACK 78 AUDIO
    TITLE "0:"
    INDEX 01 02:49:12
  TRACK 79 AUDIO
    TITLE "2:cjc151_5287"
    INDEX 01 02:50:65
  TRACK 80 AUDIO
    TITLE "0:"
    INDEX 01 02:52:03
  TRACK 81 AUDIO
    TITLE "3:cjc151_5288"
    INDEX 01 02:53:55
  TRACK 82 AUDIO
    TITLE "0:"
    INDEX 01 02:58:27
  TRACK 83 AUDIO
    TITLE "2:cjc151_5289"
    INDEX 01 03:00:06
  TRACK 84 AUDIO
    TITLE "0:"
    INDEX 01 03:01:15
  TRACK 85 AUDIO
    TITLE "3:cjc151_5290"
    INDEX 01 03:02:70
  TRACK 86 AUDIO
    TITLE "0:"
    INDEX 01 03:07:22
  TRACK 87 AUDIO
    TITLE "2:cjc151_5291"
    INDEX 01 03:09:01
  TRACK 88 AUDIO
    TITLE "0:"
    INDEX 01 03:10:20
  TRACK 89 AUDIO
    TITLE "3:cjc151_5292"
    INDEX 01 03:12:00
  TRACK 90 AUDIO
    TITLE "0:"
    INDEX 01 03:15:70
